<svg xmlns="http://www.w3.org/2000/svg" width="43.314" height="46.648" viewBox="0 0 43.314 46.648">
  <g id="Group_156" data-name="Group 156" transform="translate(-601.989 -3666.688)">
    <path id="Path_17" data-name="Path 17" d="M37.141,17.341c5.22-12.591-.862-15.677-7.395-15.26S24.888,5.722,18.095,5.265,8.51.2,6.253.011-.7,2.011.088,8.93s2.537,9.09,5.833,11.991,4.946,2.191,6.382,2S37.141,17.341,37.141,17.341Z" transform="translate(607.193 3666.688) rotate(13)"/>
    <path id="Path_18" data-name="Path 18" d="M-478.524,6839.449c3.558-4.131,7.3,0,7.3,0" transform="translate(1108.426 -3139.584)" fill="none" stroke="#000" stroke-linecap="round" stroke-width="3.5"/>
    <path id="Path_20" data-name="Path 20" d="M-478.524,6839.449c3.558-4.131,7.3,0,7.3,0" transform="translate(1089.855 -3139.584)" fill="none" stroke="#000" stroke-linecap="round" stroke-width="3.5"/>
    <path id="Path_19" data-name="Path 19" d="M0,1.873C9.37,6.563,16.795,0,16.795,0" transform="translate(616.821 3706.344) rotate(5)" fill="none" stroke="#000" stroke-linecap="round" stroke-width="3.5"/>
  </g>
</svg>
