<svg xmlns="http://www.w3.org/2000/svg" width="64.218" height="61.985" viewBox="0 0 64.218 61.985">
  <path id="Path_160" data-name="Path 160" d="M31.57-57.442l-7.238,4.235c2.233,3.157,4.466,6.622,6.622,10.4,1.232,2.156,3.157,5.7,5.852,10.78l7.161-4.62A182.955,182.955,0,0,0,31.57-57.442ZM61.6-54.516c-2.464,13.167-6.776,23.793-12.782,31.8C42.042-13.783,32.494-7.238,20.251-2.926l5.39,7.469C38.885-.077,49.2-7.623,56.749-18.018q9.818-13.745,13.783-35.035ZM13.629-51.821,6.314-47.278c2.233,3.157,4.466,6.7,6.7,10.549,1.925,3.234,3.85,6.776,5.7,10.472L26.1-30.646A175.508,175.508,0,0,0,13.629-51.821Z" transform="translate(-6.314 57.442)" fill="#fff"/>
</svg>
