<svg xmlns="http://www.w3.org/2000/svg" width="481.697" height="520.035" viewBox="0 0 481.697 520.035">
  <g id="drawn-arrow" transform="translate(532.978 486.434) rotate(165)">
    <path id="Path_148" data-name="Path 148" d="M43.424,105.759v0l.015-.013a4.227,4.227,0,0,1,.725-.536c.1-.062.2-.111.259-.144l.07-.039a15.777,15.777,0,0,1,11.832-2.078,13.65,13.65,0,0,1,4.85,2.39c.655.467,1.26.99,1.846,1.5.241.206.478.412.714.608h0l0,0a16.729,16.729,0,0,1,3.56,4.467v0a7.293,7.293,0,0,1,.869,3.186c.036.487.048.977.06,1.451,0,.041,0,.085,0,.126.013.518.028,1.021.074,1.513h0v.008a6.31,6.31,0,0,1-.623,3.034c-.14.327-.3.655-.446.972l-.166.351a12.243,12.243,0,0,0-.525,1.263h0l-.005.013a13.983,13.983,0,0,1-1.983,3.815,11.922,11.922,0,0,1-6.3,4.382,17.386,17.386,0,0,1-7.92.418h0a12.542,12.542,0,0,1-6.719-3.557,17.351,17.351,0,0,1-4.72-12A16.3,16.3,0,0,1,43.424,105.759Zm5.257,4.014a2.974,2.974,0,0,0-.66.314l-.1.093a9.038,9.038,0,0,0-2.393,7.4h0a14.5,14.5,0,0,0,3.527,7.579,4.125,4.125,0,0,0,2.963,1.3,14.564,14.564,0,0,0,2.8-.178c.229-.028.46-.059.694-.088A4.81,4.81,0,0,0,57.7,125.5h0l.009-.005c.046-.034.092-.064.137-.1a6.414,6.414,0,0,0,1.926-1.735h0l.007-.01a5.914,5.914,0,0,0,.837-1.634c.025-.093.049-.18.073-.268a9.606,9.606,0,0,0,.3-1.343,6.836,6.836,0,0,0-.093-2.147h0l0-.013a3.6,3.6,0,0,1,.026-1.245c.006-.044.013-.085.018-.124a1.587,1.587,0,0,0-.034-.856,1.757,1.757,0,0,1-.135-.884c.014-.2.052-.418.084-.606l.026-.152c.078-.482.063-.724-.076-.9-.062-.059-.121-.111-.187-.17-.039-.036-.081-.072-.128-.113a3.147,3.147,0,0,1-.378-.4v0l-.015-.023a4.251,4.251,0,0,0-1.076-1.008c-.127-.09-.265-.183-.408-.281-.32-.217-.665-.451-.964-.7a7.8,7.8,0,0,0-2.459-1.4,6.547,6.547,0,0,0-1.072-.193l-.03,0-.03-.008a8.664,8.664,0,0,0-3.363-.129h0l-.026.005a5.916,5.916,0,0,0-1.775.632l-.029.015-.031.013C48.786,109.734,48.736,109.752,48.682,109.773Z" transform="translate(379.966 253.518)"/>
    <path id="Path_149" data-name="Path 149" d="M120.058,69.226q-1.991-1.036-3.978-2.086-1.848-.955-3.673-1.933c-.663-.351-1.325-.7-1.988-1.052a109.219,109.219,0,0,1,7.61,12.245c.312.554.621,1.106.933,1.655,2.562,4.331,5.078,8.729,7.264,13.286.748,1.511,1.508,3.014,2.269,4.516,1.523,3,3.044,6.009,4.457,9.079.884,1.977,1.786,3.944,2.691,5.914h0v0l0,.005c1.6,3.483,3.2,6.968,4.694,10.5.951,2.387,1.944,4.756,2.934,7.125h0v0h0c1.325,3.173,2.65,6.344,3.885,9.546,1.2,3.166,2.318,6.393,3.429,9.61q.456,1.315.91,2.624c.575,1.67,1.108,3.356,1.642,5.04.763,2.408,1.524,4.808,2.4,7.141,1.895,4.986,3.3,10.082,4.689,15.2.237.882.479,1.758.719,2.635.464,1.681.923,3.354,1.335,5.035l1.846,7.718a313.34,313.34,0,0,1,7.342,39.289,55.412,55.412,0,0,1,15.449-5.3,49.349,49.349,0,0,1,17.656.552,71.767,71.767,0,0,1,21.443,8.095c7.017,4.184,13.335,9.376,19.437,14.4,7.386,6.128,13.547,13.341,19.705,20.548h0q1.918,2.251,3.849,4.485a161.614,161.614,0,0,1,11.036,14.98c1.08,1.591,2.158,3.179,3.248,4.746a304.6,304.6,0,0,1,16.617,26.48v0c6.574,11.67,13.15,23.343,18.741,35.5,1.843,4.047,3.722,8.082,5.6,12.116,6.736,14.452,13.48,28.918,18.525,44.167q.919,2.807,1.834,5.651c2.284,7.07,4.607,14.258,7.279,21.266.36.954.745,1.907,1.13,2.86a59.541,59.541,0,0,1,2.241,6.183c1.333,4.775,2.853,9.5,4.372,14.226h0c1.293,4.02,2.585,8.038,3.762,12.085,3.437,11.718,4.47,15.725,6.435,23.35.73,2.833,1.589,6.164,2.747,10.575.907,3.467-4.216,3.61-4.435,1.919-2.644-7.3-5.041-14.918-7.334-22.5q-1.381-4.426-2.75-8.859v0l0,0,0-.007h0c-2.868-9.265-5.737-18.534-8.807-27.719-1.288-3.871-2.661-7.731-4.031-11.586h0c-1.959-5.511-3.915-11.011-5.616-16.52-5.658-18.255-13.319-35.806-21.494-52.993q-9.176-19.292-19.177-38.086c-6.308-11.845-13.642-22.964-21.015-34.077-4.632-7.061-9.773-13.856-15-20.4a198.742,198.742,0,0,0-21.384-23.118,99.321,99.321,0,0,0-15.743-11.881,76.831,76.831,0,0,0-17.383-8.133,43.915,43.915,0,0,0-15.122-2.183,47.313,47.313,0,0,0-14.779,3.233,56.97,56.97,0,0,0-6.215,3.127q.321,2.564.657,5.115l0,0a199.171,199.171,0,0,1,2.1,22.959c.031,2.506.214,5.017.4,7.522.085,1.186.173,2.369.242,3.552.026.451.049.9.075,1.351h0c.18,3.246.361,6.46.34,9.657-.108,4.785-.129,9.592-.15,14.379v0c-.021,4.857-.041,9.7-.155,14.462a166.565,166.565,0,0,1-7.424,45.969,71.3,71.3,0,0,1-11.023,21.788,45.44,45.44,0,0,1-9.095,9.039,27,27,0,0,1-12.624,5.307,20.086,20.086,0,0,1-15.48-4.78,32.429,32.429,0,0,1-8.644-12.553,60.745,60.745,0,0,1-4.047-14.918c-1.1-7.69-.333-15.336.4-22.706.077-.781.157-1.557.232-2.333,1.356-13.529,5.236-26.511,10.177-38.727A243.734,243.734,0,0,1,133.6,273.549a153.823,153.823,0,0,1,15.622-22.582A84.246,84.246,0,0,1,165.238,236.1q-2.022-15.142-5.2-30.071c-.668-3.82-1.614-7.584-2.557-11.343v0c-.5-1.977-.993-3.952-1.449-5.934-.639-2.555-1.335-5.091-2.029-7.623v0c-.864-3.145-1.722-6.285-2.472-9.448-1.224-4.516-2.7-8.932-4.176-13.351h0l0-.005q-.522-1.566-1.041-3.13-.924-2.537-1.872-5.058l0-.005v0l0,0h0c-1.384-3.71-2.766-7.414-4.009-11.172-2.225-5.955-4.656-11.861-7.179-17.733q-4.091-8.681-8.159-17.347l-4.651-9.427a91.1,91.1,0,0,0-4.978-9.268l-3.864-6.72c-.508-.853-.982-1.732-1.454-2.611a42.6,42.6,0,0,0-2.684-4.516,31.925,31.925,0,0,1-3.867-6.5c-3.635,9.476-7.623,18.813-12.191,27.9a2.077,2.077,0,0,1-2.756,1.023c-3.367-1.284-2.856-3.766-1.415-6.571,2.33-4.509,4.194-9.206,6.058-13.9.552-1.392,1.1-2.784,1.668-4.168.505-1.292,1.029-2.573,1.547-3.854h0a109.006,109.006,0,0,0,4.019-11l.015-.044a1.2,1.2,0,0,1,.325-.588c.567-.464,1.7-.052,2.544.258.222.08.425.155.593.2a4.706,4.706,0,0,1,.642.227,2.8,2.8,0,0,1,1.774.381c.528.291,1.057.59,1.585.889,1.237.7,2.482,1.4,3.759,2.044A308.4,308.4,0,0,1,139.209,73.09a2.078,2.078,0,0,1,.737,2.846c-1.622,3.217-4.04,2.454-6.682.735C129.019,73.892,124.536,71.559,120.058,69.226Zm46.105,174.347c-.5.376-1,.76-1.493,1.152a70,70,0,0,0-11.428,12.121q-1.23,1.655-2.475,3.307l-.005.005c-5.112,6.806-10.265,13.668-14.256,21.466l-.962,1.918h0C130.1,294.4,124.629,305.3,120.86,316.929a158.073,158.073,0,0,0-6.4,26.962c-1.266,9.121-1.508,18.47.25,27.385A46.964,46.964,0,0,0,118.73,383.3a21.492,21.492,0,0,0,7.9,8.883,13.966,13.966,0,0,0,11.013,1.3,24.222,24.222,0,0,0,10.105-6.358c6.388-6.406,10.706-14.959,13.905-23.745a124.674,124.674,0,0,0,6.233-27.6c1.683-14.1,1.8-28.292,1.694-42.824-.137-13.426-1.322-26.823-2.5-40.168q-.17-1.9-.335-3.795Q166.47,246.279,166.163,243.573Z" transform="translate(-46.138 0.664)" fill-rule="evenodd"/>
    <path id="Path_150" data-name="Path 150" d="M116.745,67.8l.5-.967.013.008Zm3.978,2.085.5-.962Zm-7.651-4.019-.508.959Zm-1.988-1.052-.866.652,1.374-1.614Zm7.61,12.245.946-.531Zm.933,1.655-.933.552-.013-.018Zm7.264,13.286-.972.482-.005-.013Zm2.269,4.516-.967.49h0Zm4.457,9.079.985-.451.005.008Zm2.691,5.914-.962.505-.013-.026-.013-.026Zm0,0,.959-.505.01.021.01.021Zm0,0,.982-.464.005.013Zm0,.005-.987.454v0Zm4.694,10.5,1-.423.008.021Zm2.934,7.125-.99.448-.013-.031Zm0,0,.987-.449.01.023Zm0,0-1,.428v-.005Zm0,0-.987.449-.01-.021Zm0,0,.987-.449.013.031Zm3.885,9.546,1.013-.389,0,.005Zm3.429,9.61-1.026.353h0Zm.91,2.624,1.026-.356v0Zm1.642,5.04,1.034-.33h0Zm2.4,7.141-1.016.384v-.005Zm4.689,15.2,1.049-.286v.005Zm.719,2.635-1.047.289h0Zm1.335,5.035,1.054-.258v.005Zm1.846,7.718-1.052.265,0-.015Zm7.342,39.289.49.967-1.382.7-.186-1.539Zm15.449-5.3-.186-1.07.021,0Zm17.656.552.224-1.062h0Zm21.443,8.095.554-.931h0Zm19.437,14.4.691-.838,0,0Zm19.705,20.548.825-.7.018.023Zm0,0-.828.706-.018-.026Zm3.849,4.485.82-.709h0Zm11.036,14.98.9-.608h0Zm3.248,4.746-.887.626-.005-.005Zm16.617,26.48.946-.531.008.015Zm0,0-.946.531-.008-.015Zm18.741,35.5.985-.454,0,.005Zm5.6,12.116.985-.459Zm18.525,44.167,1.03-.341v0Zm1.834,5.651,1.032-.334Zm7.279,21.266,1.014-.387v0Zm1.13,2.86,1.006-.406Zm2.241,6.183,1.045-.292h0Zm4.372,14.226,1.033-.332.008.029Zm0,0-1.032.337-.01-.033Zm0,0,1.032-.336.006.019.005.019Zm0,0-1.025.357-.01-.028-.008-.029Zm0,0,1.025-.357.008.024Zm3.762,12.085-1.041.305v0Zm6.435,23.35-1.051.271h0Zm2.747,10.576,1.049-.276h0Zm-4.435,1.919,1.02-.369.041.112.015.118Zm-7.334-22.5,1.036-.323,0,.009Zm-2.75-8.859-1.037.321v0Zm0,0,1.035-.325,0,.007Zm0,0-1.035.325v0Zm0-.006,1.021-.367.008.022.007.023Zm0,0-1.021.366-.024-.067-.015-.069Zm0,0,1.037-.321.014.045.01.046Zm-8.807-27.719-1.029.344h0ZM345.884,441.2l.985-.455.021.045.017.047Zm0,0-.986.456-.012-.029Zm0,0-1,.426-.013-.031-.011-.032Zm-5.616-16.52,1.037-.321h0Zm-21.494-52.993-.98.467h0ZM299.6,333.6l.959-.51v0Zm-21.015-34.077-.9.6-.005,0Zm-15-20.4-.848.675h0ZM242.2,256l-.73.8-.01-.008Zm-15.743-11.881-.567.925-.005,0Zm-17.383-8.133.317-1.036.008,0ZM193.953,233.8l.059,1.083h-.005Zm-14.779,3.233-.428-1,.018-.008.018-.008Zm-6.215,3.127-1.075.137-.09-.714.621-.358Zm.657,5.115-1.075.15v-.008Zm0,0,1.075-.15v.008Zm2.1,22.959,1.085-.015v0Zm.4,7.522-1.083.08Zm.242,3.552,1.083-.064v.005Zm.075,1.351,1.085-.059v.031Zm0,0-1.083.062,0-.031Zm.34,9.657,1.085.008v.018Zm-.15,14.379-1.085.01V304.7Zm0,0,1.085-.01v.013Zm-.155,14.462-1.085-.023v0Zm-7.424,45.969,1.036.322,0,.01Zm-11.023,21.788.861.66v0Zm-9.095,9.039.645.874h0ZM136.3,401.267l-.155-1.074.021,0Zm-15.48-4.78.7-.824.01.008Zm-8.644-12.553,1-.415h0Zm-4.047-14.918,1.075-.155v.005Zm.4-22.706-1.08-.108h0Zm.232-2.333-1.08-.106v0Zm10.177-38.727-1.008-.407h0Zm15.323-31.038-.938-.547h0Zm15.622-22.582.825.7v0ZM165.9,236.761l1.075-.144.088.657-.544.379Zm-5.2-30.071-1.06.224-.005-.018,0-.021Zm-2.557-11.343,1.052-.273v.008Zm0,0-1.052.271,0-.008Zm-1.449-5.934,1.054-.263.005.021Zm-2.029-7.623-1.047.286-.008-.034-.008-.034Zm0,0,1.047-.286.01.033.005.034Zm-2.472-9.448,1.047-.284.008.034Zm-4.176-13.351,1.023-.364.005.021Zm0,0-1.023.363-.008-.026Zm0,0,1.031-.34h0Zm0-.005,1.031-.343v0Zm-1.041-3.13,1.021-.374.01.031Zm-1.872-5.058,1.016-.384v.005Zm0-.005-1.013.384,0-.005Zm0,0,1.016-.381v0Zm0,0,1-.423.008.021.01.023Zm0,0-1,.423-.01-.021-.008-.023Zm-4.009-11.172,1.018-.382.005.021.008.021Zm-7.179-17.733.982-.464.008.018.008.018Zm-8.159-17.347.974-.479.01.021ZM121.1,95.1l-.972.479-.005-.013Zm-4.978-9.267-.918.575-.01-.018-.01-.018Zm-3.864-6.72.933-.552.005.01ZM110.8,76.5l.954-.516h0Zm-2.684-4.517-.884.632-.008-.013Zm-3.867-6.5-1.013-.389,1.005-2.614,1.018,2.609Zm-12.191,27.9.969.487-.005.008ZM89.3,94.416l-.382,1.016-.005,0Zm-1.415-6.571-.967-.495,0-.005Zm6.058-13.9-1.008-.4h0Zm1.668-4.168,1.011.394-.005.013Zm1.547-3.854,1.011.4-.005.01Zm0,0-1.011-.4.005-.013Zm4.019-11-1.044-.3.008-.023.008-.023Zm.015-.044,1.029.345v0Zm.325-.588-.7-.825.018-.015Zm2.544.258.371-1.021h0Zm.593.2-.289,1.047-.018-.005Zm.642.227.139,1.078-.3.036-.276-.121Zm1.774.382-.526.949-.015-.01Zm1.585.889-.534.943h0ZM112.42,58.3l-.487.969h0Zm27.454,15.454.583-.915.008.005Zm.737,2.846.972.482-.005.005Zm-6.682.735-.593.91h0Zm31.406,168.054-.709-.822.018-.013.015-.015Zm1.493-1.152-.652-.869,1.516-1.137.214,1.882Zm-12.92,13.273.884.629-.013.018Zm-2.475,3.307.866.652,0,0Zm-.005.005-.869-.65,0-.005Zm-14.256,21.466-.969-.487,0-.008Zm-.962,1.918-.977-.472.005-.015Zm0,0,.977.472-.008.015Zm-14.686,33.386,1.031.333v0Zm-6.4,26.962-1.075-.15h0Zm.25,27.385-1.065.211h0Zm4.019,12.026-.962.505-.008-.015Zm7.9,8.883.541-.941.013.008Zm11.013,1.3.307,1.041h-.005Zm10.105-6.358-.771-.763,0,0Zm13.905-23.745,1.023.363-.005.008Zm6.233-27.6-1.08-.124,0-.005Zm1.694-42.824,1.085-.01v0Zm-2.5-40.168-1.08.1Zm-.335-3.795,1.08-.108v.013ZM117.256,66.845c1.315.7,2.64,1.389,3.967,2.083l-1,1.923c-1.325-.691-2.658-1.384-3.985-2.091Zm-3.673-1.933c1.219.65,2.436,1.3,3.661,1.926l-.992,1.931c-1.243-.639-2.47-1.291-3.686-1.939Zm-1.99-1.054,1.99,1.054-1.018,1.918c-.663-.353-1.322-.7-1.985-1.052Zm.361.309a110.6,110.6,0,0,1,7.687,12.366L117.748,77.6a108.093,108.093,0,0,0-7.53-12.126Zm7.687,12.366.931,1.652-1.89,1.067c-.309-.549-.621-1.1-.933-1.655Zm.92,1.632c2.568,4.339,5.1,8.77,7.311,13.371l-1.957.938c-2.168-4.514-4.661-8.878-7.221-13.2Zm7.3,13.361c.745,1.5,1.505,3,2.266,4.5l-1.936.982c-.76-1.5-1.524-3.008-2.274-4.524Zm2.266,4.5c1.521,3,3.052,6.025,4.473,9.121l-1.972.9c-1.4-3.05-2.913-6.035-4.437-9.043Zm4.478,9.128c.882,1.972,1.781,3.934,2.686,5.9l-1.972.907c-.9-1.97-1.81-3.942-2.7-5.924Zm2.66,5.852h0l-1.921,1.011h0Zm.021.041,0,0-1.964.928v0Zm.008.015,0,.005-1.975.9,0-.005Zm0,0c1.6,3.483,3.2,6.981,4.707,10.531l-2,.846c-1.487-3.514-3.081-6.983-4.682-10.469Zm4.715,10.551c.951,2.377,1.939,4.738,2.928,7.11l-2,.835c-.99-2.367-1.982-4.746-2.939-7.141Zm2.916,7.079h0l-1.977.9h0Zm.01.023v0l-2,.848h0Zm0,0h0l-2,.856h0Zm-.01-.021h0l-1.975.9h0Zm.013.031c1.325,3.171,2.658,6.355,3.9,9.574l-2.026.781c-1.227-3.186-2.547-6.344-3.872-9.52Zm3.9,9.579c1.209,3.184,2.328,6.424,3.439,9.639l-2.052.709c-1.111-3.22-2.222-6.429-3.416-9.577Zm3.439,9.639q.456,1.315.91,2.624l-2.049.714c-.307-.876-.608-1.753-.913-2.629Zm.91,2.627c.58,1.686,1.119,3.385,1.65,5.063l-2.067.657c-.534-1.683-1.065-3.356-1.634-5.014Zm1.65,5.063c.766,2.415,1.518,4.79,2.379,7.089l-2.031.76c-.884-2.361-1.652-4.787-2.415-7.192Zm2.377,7.084c1.918,5.045,3.336,10.188,4.725,15.3l-2.1.57c-1.389-5.12-2.782-10.167-4.658-15.1Zm4.725,15.3q.352,1.315.717,2.627l-2.093.577c-.24-.876-.482-1.758-.719-2.645Zm.717,2.627c.461,1.678.928,3.367,1.343,5.066l-2.109.516c-.407-1.663-.864-3.323-1.328-5ZM164,185.726l1.848,7.718-2.111.5-1.846-7.716Zm1.843,7.7a314.575,314.575,0,0,1,7.368,39.426l-2.155.26a311.813,311.813,0,0,0-7.316-39.153Zm5.8,38.588a56.562,56.562,0,0,1,15.753-5.4l.374,2.14a54.384,54.384,0,0,0-15.148,5.2Zm15.774-5.406a50.493,50.493,0,0,1,18.045.562l-.446,2.122a48.388,48.388,0,0,0-17.267-.539Zm18.048.562a72.774,72.774,0,0,1,21.77,8.226l-1.109,1.864a70.678,70.678,0,0,0-21.115-7.968Zm21.773,8.226c7.1,4.23,13.477,9.476,19.571,14.5l-1.379,1.676c-6.112-5.035-12.371-10.175-19.3-14.307Zm19.574,14.5c7.468,6.195,13.689,13.482,19.837,20.68L265,271.987c-6.166-7.221-12.268-14.361-19.569-20.419Zm19.855,20.7h0l-1.688,1.361h0Zm-.018-.023q1.918,2.251,3.844,4.48l-1.64,1.42q-1.937-2.239-3.854-4.491Zm3.846,4.48a162.226,162.226,0,0,1,11.111,15.081l-1.8,1.219a160.372,160.372,0,0,0-10.956-14.88Zm11.111,15.081c1.08,1.591,2.155,3.173,3.24,4.736l-1.781,1.24c-1.093-1.575-2.176-3.168-3.256-4.756Zm3.235,4.728a305.28,305.28,0,0,1,16.679,26.575l-1.892,1.065a302.973,302.973,0,0,0-16.558-26.387Zm16.687,26.591h0l-1.908,1.034h0Zm-.008-.015c6.571,11.665,13.168,23.376,18.78,35.58l-1.969.907c-5.571-12.111-12.124-23.745-18.7-35.423ZM320.3,357.027c1.841,4.042,3.717,8.071,5.6,12.106l-1.967.918c-1.882-4.034-3.764-8.071-5.607-12.126Zm5.6,12.106c6.731,14.441,13.5,28.966,18.571,44.285l-2.06.682c-5.021-15.179-11.739-29.59-18.477-44.049Zm18.572,44.289q.92,2.81,1.835,5.655l-2.065.667q-.918-2.842-1.832-5.647Zm1.835,5.655c2.286,7.074,4.6,14.236,7.261,21.213l-2.028.773c-2.684-7.038-5.016-14.254-7.3-21.319Zm7.262,21.216c.355.94.735,1.881,1.121,2.836l-2.012.813c-.384-.951-.774-1.915-1.14-2.883Zm1.121,2.836a60.434,60.434,0,0,1,2.28,6.3l-2.09.584a58.566,58.566,0,0,0-2.2-6.068Zm2.28,6.3c1.327,4.751,2.84,9.457,4.361,14.185l-2.066.665c-1.518-4.722-3.044-9.468-4.384-14.266Zm4.369,14.214h0l-2.084.607h0Zm-.01-.033h0l-2.063.673h0Zm.012.038h0l-2.086.6h0Zm-.018-.057h0l-2.05.714h0Zm.008.025c1.292,4.017,2.589,8.05,3.771,12.114l-2.084.606c-1.172-4.03-2.46-8.034-3.753-12.056Zm3.77,12.112c3.441,11.733,4.477,15.752,6.445,23.385l-2.1.542c-1.963-7.617-2.993-11.612-6.426-23.316Zm6.445,23.385c.73,2.832,1.588,6.162,2.746,10.571l-2.1.551c-1.159-4.414-2.019-7.748-2.749-10.58Zm2.746,10.572a3.322,3.322,0,0,1-.461,2.926,3.613,3.613,0,0,1-2.155,1.3,4.416,4.416,0,0,1-2.307-.108,2.274,2.274,0,0,1-1.637-1.789l2.152-.279c-.023-.178-.142-.1.188.014a2.258,2.258,0,0,0,1.146.039,1.464,1.464,0,0,0,.876-.484,1.181,1.181,0,0,0,.1-1.074Zm-6.5,2.563c-2.654-7.324-5.057-14.968-7.353-22.551l2.077-.629c2.292,7.572,4.682,15.172,7.316,22.44ZM360.44,489.7q-1.382-4.428-2.75-8.861l2.073-.642q1.372,4.432,2.749,8.857Zm-2.751-8.865v0l2.075-.635v0Zm0,0,0,0,2.071-.649v0Zm0-.008,0-.006,2.073-.643,0,.006Zm.013.039h0l2.043-.733h0Zm-.039-.136h0l2.121-.461h0Zm.024.09c-2.869-9.267-5.734-18.524-8.8-27.7l2.058-.688c3.074,9.2,5.947,18.479,8.815,27.742Zm-8.8-27.7c-1.284-3.859-2.653-7.709-4.024-11.565l2.045-.727c1.37,3.853,2.746,7.723,4.038,11.607ZM344.9,441.656h0l1.97-.91h0Zm-.013-.029h0l2-.853h0Zm-.024-.063c-1.958-5.507-3.922-11.029-5.631-16.564l2.074-.64c1.693,5.483,3.641,10.962,5.6,16.477ZM339.231,425c-5.635-18.182-13.27-35.679-21.437-52.848l1.959-.931c8.185,17.2,15.869,34.808,21.551,53.136Zm-21.437-52.848q-9.164-19.272-19.156-38.042l1.918-1.018q9.988,18.793,19.2,38.129ZM298.64,334.112c-6.28-11.791-13.585-22.868-20.961-33.989l1.807-1.2c7.37,11.108,14.733,22.27,21.069,34.167ZM277.674,300.12c-4.607-7.022-9.726-13.787-14.939-20.324l1.7-1.353c5.236,6.563,10.4,13.387,15.057,20.486ZM262.736,279.8A197.979,197.979,0,0,0,241.471,256.8l1.462-1.6a199.935,199.935,0,0,1,21.5,23.242Zm-21.275-23a98.193,98.193,0,0,0-15.57-11.75l1.137-1.848a100.527,100.527,0,0,1,15.916,12.01Zm-15.576-11.753a75.611,75.611,0,0,0-17.135-8.02l.65-2.07a77.779,77.779,0,0,1,17.63,8.247Zm-17.13-8.017a42.8,42.8,0,0,0-14.743-2.14l-.116-2.168a44.994,44.994,0,0,1,15.5,2.232Zm-14.748-2.14a46.25,46.25,0,0,0-14.439,3.161l-.786-2.024a48.47,48.47,0,0,1,15.117-3.3ZM179.6,238.032a56.675,56.675,0,0,0-6.1,3.07l-1.09-1.874a57.712,57.712,0,0,1,6.331-3.189Zm-5.566,2c.211,1.7.436,3.405.657,5.109l-2.153.281c-.222-1.7-.446-3.41-.657-5.12Zm.655,5.1v0l-2.147.3,0,0Zm0,.01a199.755,199.755,0,0,1,2.106,23.085l-2.168.031a198.217,198.217,0,0,0-2.091-22.835Zm2.106,23.087c.031,2.467.211,4.944.394,7.455l-2.165.16c-.183-2.5-.369-5.045-.4-7.589Zm.394,7.455c.085,1.186.173,2.377.242,3.568l-2.165.129c-.07-1.175-.155-2.351-.242-3.537Zm.242,3.573c.026.451.052.9.075,1.351l-2.165.121c-.026-.451-.052-.9-.075-1.353Zm.077,1.382h0l-2.171.059v0Zm0-.031c.18,3.24.363,6.486.343,9.724l-2.171-.013c.021-3.158-.157-6.339-.338-9.59Zm.343,9.742c-.108,4.772-.129,9.569-.15,14.359l-2.171-.008c.021-4.787.041-9.605.15-14.4Zm-.15,14.346h0l-2.171.018h0Zm0,.013c-.021,4.857-.041,9.706-.155,14.485l-2.171-.052c.113-4.754.134-9.582.155-14.441Zm-.155,14.483a167.7,167.7,0,0,1-7.473,46.268L168,364.812a165.455,165.455,0,0,0,7.375-45.67Zm-7.476,46.278a72.328,72.328,0,0,1-11.2,22.116l-1.722-1.32A70.249,70.249,0,0,0,168.009,364.8Zm-11.2,22.118a46.586,46.586,0,0,1-9.311,9.25l-1.286-1.748a44.386,44.386,0,0,0,8.876-8.825Zm-9.314,9.251a28.08,28.08,0,0,1-13.134,5.508l-.266-2.154a25.914,25.914,0,0,0,12.116-5.1Zm-13.114,5.506A21.179,21.179,0,0,1,120.1,397.3l1.431-1.633a19,19,0,0,0,14.611,4.522Zm-16.339-5.03a33.5,33.5,0,0,1-8.94-12.962l2.006-.83a31.361,31.361,0,0,0,8.345,12.144Zm-8.937-12.962a61.708,61.708,0,0,1-4.122-15.184l2.15-.3a59.648,59.648,0,0,0,3.975,14.653Zm-4.122-15.181c-1.121-7.839-.338-15.617.4-22.966l2.16.217c-.74,7.391-1.49,14.905-.41,22.443Zm.4-22.966q.12-1.172.232-2.33l2.16.211c-.075.776-.155,1.554-.232,2.336Zm.232-2.333c1.369-13.66,5.285-26.748,10.25-39.027l2.013.815c-4.916,12.155-8.762,25.034-10.1,38.428Zm10.252-39.027a244.887,244.887,0,0,1,15.39-31.177l1.877,1.093a242.442,242.442,0,0,0-15.256,30.9Zm15.393-31.177a154.526,154.526,0,0,1,15.733-22.739l1.65,1.41A152.419,152.419,0,0,0,135.2,274.759Zm15.73-22.737a85.3,85.3,0,0,1,16.225-15.06l1.237,1.784a83.222,83.222,0,0,0-15.81,14.681ZM164.828,236.9q-2.015-15.1-5.189-29.989l2.122-.451q3.179,14.957,5.218,30.153Zm-5.2-30.027c-.663-3.774-1.6-7.5-2.542-11.265l2.1-.528c.944,3.753,1.9,7.556,2.575,11.42Zm-2.539-11.258,0,0,2.1-.544,0,0Zm-.005-.01c-.495-1.975-.992-3.96-1.451-5.952l2.116-.487c.451,1.97.944,3.934,1.441,5.911Zm-1.446-5.932c-.637-2.544-1.328-5.068-2.024-7.6l2.093-.575c.693,2.531,1.392,5.078,2.037,7.649Zm-2.039-7.669h0l2.124-.441h0Zm.015.067c-.861-3.145-1.727-6.3-2.482-9.484l2.111-.5c.745,3.14,1.6,6.262,2.464,9.412Zm-2.475-9.453c-1.212-4.48-2.678-8.868-4.156-13.289l2.057-.688c1.475,4.411,2.962,8.86,4.194,13.41Zm-4.148-13.268v0l2.044-.727h0Zm-.01-.028h0l2.062-.678v0Zm0,0v-.005l2.06-.681,0,.005Zm0,0q-.522-1.566-1.044-3.135l2.062-.683q.514,1.566,1.042,3.13Zm-1.031-3.1q-.924-2.529-1.869-5.047l2.031-.76q.943,2.521,1.877,5.063Zm-1.869-5.042v-.008l2.029-.768,0,.005Zm0-.013,0-.005,2.034-.755,0,.005Zm0,0v0l2.034-.758h0Zm.018.041h0l2-.848v0Zm-.018-.044c-1.384-3.707-2.774-7.429-4.021-11.211l2.06-.681c1.235,3.735,2.609,7.419,4,11.134ZM140.07,139.99c-2.217-5.932-4.64-11.82-7.161-17.684l2-.856c2.526,5.883,4.965,11.8,7.2,17.78Zm-7.146-17.651q-4.091-8.681-8.159-17.347l1.967-.92q4.056,8.654,8.156,17.341Zm-8.149-17.326-4.651-9.43,1.946-.962,4.651,9.43ZM120.12,95.57a91.31,91.31,0,0,0-4.919-9.159l1.838-1.152a92.738,92.738,0,0,1,5.037,9.376Zm-4.939-9.2-3.867-6.718,1.879-1.083,3.867,6.72Zm-3.862-6.705c-.518-.876-1-1.774-1.474-2.65l1.91-1.031c.477.884.938,1.743,1.433,2.575Zm-1.474-2.65a40.512,40.512,0,0,0-2.611-4.4L109,71.359a42.728,42.728,0,0,1,2.756,4.63Zm-2.619-4.413a33.045,33.045,0,0,1-3.985-6.72l2.021-.791a30.955,30.955,0,0,0,3.746,6.275Zm-1.962-6.728c-3.645,9.5-7.646,18.87-12.235,28L91.09,92.9c4.547-9.051,8.523-18.355,12.147-27.8ZM93.024,93.887a3.267,3.267,0,0,1-1.652,1.567,3.324,3.324,0,0,1-2.449-.023l.761-2.031a1.167,1.167,0,0,0,.869.044,1.093,1.093,0,0,0,.541-.547Zm-4.107,1.542a5.6,5.6,0,0,1-2.271-1.469,3.745,3.745,0,0,1-.933-2.153,8.432,8.432,0,0,1,1.209-4.457l1.931.99a6.457,6.457,0,0,0-.98,3.253,1.588,1.588,0,0,0,.4.931,3.5,3.5,0,0,0,1.418.879Zm-1.993-8.084c2.3-4.449,4.148-9.1,6.014-13.8l2.016.8a152.673,152.673,0,0,1-6.1,14Zm6.014-13.8c.552-1.392,1.106-2.789,1.67-4.179l2.011.817c-.562,1.382-1.114,2.769-1.665,4.161ZM94.6,69.382c.51-1.3,1.034-2.586,1.552-3.864l2.011.817c-.521,1.281-1.039,2.555-1.542,3.838Zm1.549-3.854h0l2.018.794v0Zm.005-.013a107.831,107.831,0,0,0,3.98-10.886l2.088.6a110.15,110.15,0,0,1-4.058,11.105Zm4-10.933.015-.044,2.057.693-.016.041Zm.015-.044a2.225,2.225,0,0,1,.65-1.067l1.408,1.652a.488.488,0,0,0,.052-.054c.013-.018.015-.026.015-.023a.4.4,0,0,0-.023.052c-.013.034-.026.072-.044.131Zm.668-1.083a2.471,2.471,0,0,1,2.047-.387,9.891,9.891,0,0,1,1.554.464l-.742,2.039a8.2,8.2,0,0,0-1.2-.369c-.407-.075-.4.026-.289-.067Zm3.6.077c.234.085.4.147.526.183l-.611,2.083c-.209-.062-.446-.15-.657-.227Zm.508.178a5.669,5.669,0,0,1,.794.281l-.874,1.985a3.817,3.817,0,0,0-.495-.173Zm1.588,2.593a1.718,1.718,0,0,0-1.093-.242l-.278-2.153a3.876,3.876,0,0,1,2.454.516Zm1.593.894q-.793-.449-1.578-.884l1.049-1.9c.536.3,1.067.6,1.6.895Zm3.8,2.07c-1.3-.657-2.57-1.371-3.8-2.07l1.067-1.89c1.242.7,2.462,1.389,3.715,2.021Zm27.356,15.4a308.5,308.5,0,0,0-27.356-15.4l.977-1.939a310.46,310.46,0,0,1,27.547,15.509Zm.348,1.451a1.174,1.174,0,0,0,.134-.858,1.1,1.1,0,0,0-.49-.6l1.183-1.817a3.25,3.25,0,0,1,1.389,1.8,3.324,3.324,0,0,1-.271,2.433Zm-5.117.309a6.491,6.491,0,0,0,3.135,1.307,1.592,1.592,0,0,0,.969-.3,3.538,3.538,0,0,0,1.018-1.32l1.936.977a5.624,5.624,0,0,1-1.694,2.109,3.77,3.77,0,0,1-2.235.709,8.445,8.445,0,0,1-4.313-1.66Zm-13.3-7.5c4.47,2.328,9,4.687,13.3,7.5l-1.188,1.817c-4.192-2.745-8.626-5.055-13.114-7.393Zm43.437,175.61c.5-.4,1.005-.789,1.516-1.17l1.3,1.735q-.742.557-1.467,1.134Zm-11.637,12.343a71.051,71.051,0,0,1,11.6-12.315l1.42,1.642a68.96,68.96,0,0,0-11.255,11.93Zm-2.459,3.284c.827-1.1,1.655-2.2,2.472-3.3l1.743,1.294c-.822,1.106-1.652,2.209-2.48,3.313Zm0,0,.005-.005,1.73,1.31-.005.005Zm-14.356,21.626c4.04-7.893,9.252-14.828,14.354-21.621l1.735,1.3c-5.117,6.816-10.216,13.606-14.155,21.309Zm-.967,1.926.964-1.918,1.939.972-.962,1.921Zm-.005.015h0l1.954.943h0Zm-14.743,33.523c3.8-11.724,9.309-22.693,14.748-33.538l1.941.974c-5.455,10.868-10.884,21.69-14.624,33.231Zm-6.439,27.148a159.4,159.4,0,0,1,6.439-27.15l2.065.673a157.254,157.254,0,0,0-6.357,26.779Zm.26,27.746c-1.789-9.072-1.536-18.548-.26-27.746l2.147.3c-1.253,9.046-1.485,18.267.242,27.026Zm4.114,12.3a48.11,48.11,0,0,1-4.114-12.3l2.129-.423a45.814,45.814,0,0,0,3.924,11.747Zm8.329,9.335a22.572,22.572,0,0,1-8.321-9.319l1.923-1.008a20.433,20.433,0,0,0,7.478,8.445Zm11.853,1.4a15.046,15.046,0,0,1-11.866-1.4l1.106-1.867A12.879,12.879,0,0,0,138,393.1Zm10.577-6.638a25.28,25.28,0,0,1-10.572,6.636L138,393.1a23.122,23.122,0,0,0,9.641-6.08Zm14.15-24.137c-3.22,8.852-7.607,17.573-14.153,24.139l-1.539-1.531c6.228-6.246,10.479-14.629,13.652-23.35Zm6.293-27.849A125.757,125.757,0,0,1,163.34,364.4l-2.047-.727a123.442,123.442,0,0,0,6.177-27.362Zm1.7-42.955c.106,14.537-.008,28.787-1.7,42.96l-2.155-.258c1.676-14.026,1.792-28.158,1.686-42.687Zm-2.508-40.256c1.181,13.338,2.372,26.776,2.508,40.254l-2.171.023c-.134-13.379-1.317-26.733-2.5-40.086Zm-.335-3.795q.166,1.895.335,3.795l-2.16.191q-.17-1.9-.338-3.795Zm-.58-5.444q.309,2.714.58,5.432l-2.16.214q-.271-2.7-.575-5.4Z" transform="translate(-46.803 0)"/>
  </g>
</svg>
