<svg xmlns="http://www.w3.org/2000/svg" width="71.383" height="71.417" viewBox="0 0 71.383 71.417">
  <path id="Path_159" data-name="Path 159" d="M90.96,50.533a27.755,27.755,0,0,0,5.34-3.2c4.817-3.667,7.38-9.586,8.268-15.608a26.814,26.814,0,0,0-3.148-15.918A28.13,28.13,0,0,0,95.29,7.7,22.139,22.139,0,0,0,83.506,2.255a29.3,29.3,0,0,0-23.09,7.13,12.729,12.729,0,0,0-3.4,6.338c-.627,2.357-.888,4.608-1.883,6.651-2.354,4.819-.572,10.421.948,14.871A20.62,20.62,0,0,0,64.934,48.71,22.079,22.079,0,0,0,72.109,51.8c4.242.627,7.907.312,11.1.519a27.1,27.1,0,0,0,7.54-1.521.567.567,0,0,0,.209-.262L86.138,39.381c-.576-.052-.943.314-1.466.419-.524.157-.994.576-1.518.524-.628-.052-1.2-.418-1.833-.314-.995.262-2.042.367-3.456.787a5.634,5.634,0,0,1-3.351-.365c-1.362-.418-2.148-1.518-3.248-2.46-1.2-.942-2.724-2.146-3.091-3.769-.577-2.3-2.2-5.183-1.1-7.854.523-1.152.051-2.828,1.2-3.771,1.309-1.048,1.36-3.195,3.088-3.876,1.885-.734,3.193-2.305,5.235-2.463,1.728-.105,3.3-1.153,5.027-.054.681.419,1.309,0,1.99.261,2.3,1.1,4.923,1.15,6.442,3.3a10.906,10.906,0,0,1,1.834,4.346c.157.943.786,1.676.472,2.723-.367,1.047.21,1.728,0,2.566-.366,1.519-.1,3.037-.993,4.294-.89,1.1-1.151,2.462-2.146,3.352a10.764,10.764,0,0,1-3.141,2.358Z" transform="translate(2.752 -41.454) rotate(48)"/>
</svg>
