<svg xmlns="http://www.w3.org/2000/svg" width="96.053" height="101.671" viewBox="0 0 96.053 101.671">
  <g id="Group_179" data-name="Group 179" transform="translate(-11.522 -11.617)">
    <path id="Path_155" data-name="Path 155" d="M29.869,82.365a40.071,40.071,0,0,0,8.948-17A39.691,39.691,0,0,0,38.4,46.557a78.08,78.08,0,0,0-6.065-16.394A154.057,154.057,0,0,0,24.1,15.358a7.433,7.433,0,0,0-4.615-3.677c-1.6-.3-4.541.492-5.182,2.13a1.806,1.806,0,0,0-.124.551c-.161,1.3.571,2.838.967,4.05a21.475,21.475,0,0,0,1.961,4.581,131.44,131.44,0,0,1,8.61,16.134c2.2,5.133,4.148,10.5,4.458,16.813.41,8.564-3.533,16.869-10.551,23.235-3.5,3.41-7.317,4.056-8.006,8.457-.623,3.84,1.709,5.532,5.663,4.066A29.7,29.7,0,0,0,29.869,82.365Z" transform="translate(0 0)"/>
    <path id="Path_156" data-name="Path 156" d="M15.991,48.341a18.451,18.451,0,0,1,2.8-1.421,22.993,22.993,0,0,1,4.44-2.016c.9-.329,1.813-.565,2.7-.987a27.377,27.377,0,0,1,2.885-1.376,28.945,28.945,0,0,1,3.822-1.217,11.01,11.01,0,0,1,3.956-.592,13.628,13.628,0,0,0,4.4-.185,1.74,1.74,0,0,1,1.078.214,1.986,1.986,0,0,0,1.542.142,2.42,2.42,0,0,1,2.029.466,4.674,4.674,0,0,0,2.736.737c1.152-.045,1.969.817,2.925,1.221,1.038.448,2.042.92,3.046,1.392a7.3,7.3,0,0,1,2.25,1.648c.409.431.656.925,1.418.693a.93.93,0,0,1,1.024.355c.7.994,1.894,1.437,2.54,2.42.865,1.292,2.258,1.951,3.294,3.121a4.04,4.04,0,0,1,.895,1.116c.261.587.582,1.183,1.387,1.23a.454.454,0,0,1,.273.167c1.175,1.947,3.1,3.208,4.283,5.1.8,1.34,1.935,2.438,2.731,3.778,1.025,1.59,2,3.322,3.181,4.849l.194.274c1.283,1.664,2.508,1.722,4.465.489a7.71,7.71,0,0,0,2.677-3.34,2.139,2.139,0,0,0,.03-1.772c-.47-.954-.618-2.033-1.616-2.715a2.418,2.418,0,0,1-.924-2.537,2.127,2.127,0,0,0-1.461-2.568,3.261,3.261,0,0,1-1.9-2.1,5,5,0,0,0-2.11-2.468,1.315,1.315,0,0,1-.719-1.086,3.648,3.648,0,0,0-1.272-2.084c-1.927-1.774-4.114-3.261-5.7-5.429a7.572,7.572,0,0,0-4.254-2.441c-.351-.06-.551-.124-.7-.481-.552-1.359-1.926-2.135-2.923-3.178-.277-.318-.7-.481-.866-.93a.735.735,0,0,0-.619-.437c-1.787.238-2.628-1.02-3.659-2.038-.36-.363-.707-.271-1.092-.307A4.548,4.548,0,0,1,52,33.053a3.316,3.316,0,0,0-2.98-.718c-2.677.508-5.165-.1-7.767.154a1.709,1.709,0,0,1-.771-.071,5.166,5.166,0,0,0-3.721.27c-1.3.562-2.915.317-4.3.683l-2.99.576a4.046,4.046,0,0,0-2.4,1.339,4.443,4.443,0,0,1-3.163,1.419c-2.272.427-4.583,1.088-6.234,2.825-.034.024-.078.107-.113.132-1.418.542-2.582,1.368-2.734,2.968-1.29.5-1.529,1.908-2.212,2.907A4.609,4.609,0,0,0,11.8,48.02c.034,1.572.784,2.121,2.152,1.511A8.765,8.765,0,0,0,15.991,48.341Z" transform="translate(0.57 42.481)"/>
    <path id="Path_157" data-name="Path 157" d="M45,94.556c-.67-1.018-.974-2.244-1.551-3.276-.922-1.663-1.463-3.442-2.223-5.167-.368-1.026-.608-2.092-1.034-3.128-.441-1.129-1.3-2.118-1.575-3.31-.381-1.481-1.015-2.884-1.43-4.34a24.093,24.093,0,0,1-.688-4.454,13.1,13.1,0,0,0-.047-4.858,1.817,1.817,0,0,1,.316-1.151,2.219,2.219,0,0,0,.255-1.674,2.389,2.389,0,0,1,.647-2.209,5.733,5.733,0,0,0,1.079-2.979c.126-1.273,1.14-2.1,1.646-3.123.726-1.081,1.311-2.217,1.979-3.308a10.11,10.11,0,0,1,2.156-2.4c.5-.457,1.086-.719.957-1.554a1.144,1.144,0,0,1,.551-1.111c1.286-.655,1.887-2.058,3.031-2.767,1.521-.976,2.527-2.462,3.879-3.678a5.585,5.585,0,0,1,1.322-1.04,2.461,2.461,0,0,0,1.553-1.513.557.557,0,0,1,.2-.3c2.2-1.4,3.766-3.546,5.938-4.984,1.5-1.01,2.752-2.363,4.249-3.373a51.351,51.351,0,0,0,5.335-4.092l.284-.253c1.782-1.624,1.875-2.874.377-4.7a7.351,7.351,0,0,0-3.746-2.234,2.344,2.344,0,0,0-1.9.218c-.973.587-2.141.9-2.843,2.016a2.678,2.678,0,0,1-2.679,1.231A2.493,2.493,0,0,0,58.3,22.781a3.879,3.879,0,0,1-2.234,2.15,5.927,5.927,0,0,0-2.683,2.315,1.369,1.369,0,0,1-1.155.767,4.268,4.268,0,0,0-2.255,1.393c-2.018,1.946-3.7,4.371-6.157,5.91a8.6,8.6,0,0,0-3.042,4.422c-.094.376-.193.6-.574.716-1.549.429-2.5,1.925-3.715,2.892-.353.3-.574.716-1.082.87a.888.888,0,0,0-.554.6c-.085,1.913-1.459,2.734-2.664,3.794-.421.35-.364.721-.492,1.121a5.937,5.937,0,0,1-1.51,3.388,4.147,4.147,0,0,0-1.163,3.3,18.672,18.672,0,0,1-.328,4.4l-.259,4.354a4.184,4.184,0,0,1-.115.854,7.64,7.64,0,0,0,.274,4.233,47.644,47.644,0,0,1,.769,4.86,25.171,25.171,0,0,0,.667,3.336,5.633,5.633,0,0,0,1.382,2.675,7.01,7.01,0,0,1,1.6,3.5,12.666,12.666,0,0,0,2.974,6.952c.048.068.107.078.121.171.581,1.545,1.308,2.934,3.064,3.233.542,1.418,1.907,1.891,2.944,2.7a5.16,5.16,0,0,0,2.563,1.22c1.649.22,2.233-.554,1.57-2.143A21.324,21.324,0,0,0,45,94.556Z" transform="translate(34.318 12.098)"/>
    <path id="Path_158" data-name="Path 158" d="M26.426,35.477a39.4,39.4,0,0,0,16.9,8.508,36.883,36.883,0,0,0,18.54-1.152,70.675,70.675,0,0,0,8.255-3.023c2.514-1.319,5.149-2.467,7.541-3.958a147.187,147.187,0,0,0,13.857-9.208c1.62-1.2,3.051-2.884,3.2-4.846.152-1.6-.9-4.46-2.556-4.983a1.191,1.191,0,0,0-.561-.065c-1.284-.068-2.693.777-3.89,1.265a18.5,18.5,0,0,0-4.269,2.255,115.921,115.921,0,0,1-15.025,9.522c-4.87,2.424-9.921,4.667-16,5.169-8.238.8-16.47-3.044-22.8-9.725-3.372-3.375-4-7.1-8.355-7.717-3.791-.555-5.532,1.709-4.067,5.663A28.226,28.226,0,0,0,26.426,35.477Z" transform="translate(10.645 10.58)"/>
  </g>
</svg>
